<svg xmlns="http://www.w3.org/2000/svg" width="160" height="35" viewBox="0 0 167.789 36.704" shape-rendering="geometricPrecision" text-rendering="geometricPrecision" image-rendering="optimizeQuality" fill-rule="evenodd" clip-rule="evenodd"><defs><style>.fil0,.fil1{fill:#fff}.fil1{fill-rule:nonzero}</style></defs><g id="Слой_x0020_1"><path id="Oval-1" class="fil0" d="M79.814 26.706a8.243 8.243 0 1 0 0-16.486 8.243 8.243 0 0 0 0 16.486zm-.076-3.351a4.858 4.858 0 1 0 .001-9.717 4.858 4.858 0 0 0-.001 9.717z"/><path class="fil1" d="M15.252 26.712c-1.686 0-3.135-.628-4.347-1.883-1.212-1.256-1.817-2.718-1.817-4.386 0-1.669.614-3.113 1.843-4.334 1.23-1.22 2.709-1.83 4.439-1.83s3.205.61 4.425 1.83c1.221 1.221 1.831 2.67 1.831 4.347 0 1.677-.597 3.139-1.791 4.386-1.194 1.247-2.643 1.87-4.346 1.87h-.237zm5.531-6.204c0-1.483-.531-2.77-1.593-3.858-1.063-1.089-2.332-1.634-3.807-1.634s-2.752.549-3.832 1.647C10.47 17.76 9.93 19.047 9.93 20.522s.54 2.752 1.621 3.832c1.08 1.08 2.361 1.62 3.845 1.62s2.753-.54 3.807-1.62c1.053-1.08 1.58-2.362 1.58-3.846zm3.346 11.183V14.569h.842v2.897c.475-.966 1.217-1.738 2.226-2.318 1.01-.579 2.059-.869 3.148-.869 1.739 0 3.218.61 4.439 1.83 1.22 1.221 1.83 2.683 1.83 4.386 0 1.704-.61 3.166-1.83 4.386-1.221 1.221-2.7 1.831-4.439 1.831-1.053 0-2.081-.285-3.082-.856s-1.765-1.339-2.292-2.305v8.14h-.842zm.79-11.169c0 1.475.54 2.752 1.62 3.832s2.362 1.62 3.846 1.62 2.752-.54 3.806-1.62c1.054-1.08 1.581-2.362 1.581-3.846 0-1.483-.532-2.77-1.594-3.858-1.063-1.089-2.331-1.634-3.806-1.634-1.476 0-2.753.549-3.833 1.647-1.08 1.097-1.62 2.384-1.62 3.859zm20.125 6.216h-.237c-1.668 0-3.122-.627-4.36-1.883-1.238-1.256-1.857-2.718-1.857-4.386 0-1.668.615-3.113 1.844-4.333 1.229-1.221 2.748-1.831 4.557-1.831 1.809 0 3.363.72 4.663 2.16l-8.272 8.166c1.142.913 2.239 1.37 3.293 1.37 1.054 0 1.998-.242 2.832-.725a6.224 6.224 0 0 0 2.068-1.936v1.344c-1.247 1.37-2.757 2.054-4.531 2.054zm-.277-11.695c-1.396 0-2.634.54-3.714 1.62s-1.62 2.322-1.62 3.727c0 1.405.465 2.634 1.396 3.688l7.666-7.613c-1.089-.948-2.332-1.422-3.728-1.422zm8.232 11.379h-.843V14.569h.843v2.397c.896-1.792 2.423-2.687 4.583-2.687 1.476 0 2.714.509 3.715 1.527 1.001 1.019 1.501 2.257 1.501 3.715v6.901h-.843v-6.901c0-1.212-.426-2.266-1.277-3.161-.852-.896-1.884-1.344-3.096-1.344-1.211 0-2.278.448-3.2 1.344-.922.895-1.383 1.949-1.383 3.161v6.901z"/><path class="fil0" d="M79.814 26.706a8.243 8.243 0 1 1 0-16.486 8.243 8.243 0 0 1 0 16.486zm0-13.133a4.89 4.89 0 1 1 .001 9.78 4.89 4.89 0 0 1-.001-9.78zm17.079 13.133a8.242 8.242 0 0 1-8.242-8.243 8.242 8.242 0 0 1 13.241-6.553V6.636a1.623 1.623 0 0 1 3.246 0l-.002 11.846a8.242 8.242 0 0 1-8.243 8.224zm0-13.133a4.89 4.89 0 1 1 .001 9.78 4.89 4.89 0 0 1-.001-9.78zm17.236 13.133a8.242 8.242 0 1 1 0-16.485 8.242 8.242 0 0 1 8.242 8.242 8.242 8.242 0 0 1-8.242 8.243zm0-13.133a4.89 4.89 0 1 1 .001 9.78 4.89 4.89 0 0 1-.001-9.78zm17.468 13.133a8.242 8.242 0 1 1 0-16.485 8.242 8.242 0 0 1 8.242 8.242 8.242 8.242 0 0 1-8.242 8.243zm0-13.133a4.89 4.89 0 0 1 4.89 4.89 4.89 4.89 0 1 1-9.781 0 4.89 4.89 0 0 1 4.891-4.89z"/><path class="fil1" d="M141.503 26.627c-.454 0-.681-.204-.681-.612 0-.408.227-.611.681-.611.454 0 .681.203.681.611s-.227.612-.681.612zm7.746-7.815c-.579-.579-1.217-.868-1.915-.868-.697 0-1.312.263-1.845.789-.533.526-.799 1.138-.799 1.835v5.921h-.632v-8.881h.632v1.323c.237-.448.605-.816 1.105-1.106a3.291 3.291 0 0 1 1.678-.434c.618 0 1.21.211 1.776.632v.789zm8.821-1.204h.632v8.881h-.632v-1.796c-.671 1.342-1.815 2.013-3.434 2.013-1.105 0-2.032-.381-2.782-1.145-.75-.763-1.125-1.69-1.125-2.782v-5.171h.631v5.171c0 .908.319 1.697.958 2.368.638.671 1.411 1.007 2.318 1.007.908 0 1.707-.336 2.398-1.007.691-.671 1.036-1.46 1.036-2.368v-5.171z"/><path fill="none" d="M0 0h167.789v36.704H0z"/></g></svg>